<svg xmlns="http://www.w3.org/2000/svg" width="682.667" height="682.667" viewBox="0 0 512 512" preserveAspectRatio="xMidYMid meet" xmlns:v="https://vecta.io/nano"><path d="M242.5 6.1c-21.4 1.1-43.2 5.6-61.6 12.8-9.1 3.6-22.9 10.6-22.9 11.7 0 .3.9 0 2.1-.6 1.1-.6 3-1.3 4.2-1.6 1.2-.2 4-1.2 6.2-2.3 10.3-5 39.2-13.8 51-15.5l7.5-1.1c18.4-2.7 47.9-2.2 64.6 1 4.3.8 8.8 1.5 9.8 1.5 9.1 0-21.6-4.9-36-5.8-6.6-.4-17.7-.4-24.9-.1zM137.1 26.6C107 41.7 90 54 68.4 76.2 53 92.1 40.2 109.1 29.1 128.5l-2.3 4 3.6-4c4.3-4.7 13.6-18 13.6-19.4 0-.5.4-1.1.8-1.3.5-.2 4.2-4.8 8.2-10.3 7.7-10.3 27.5-30.6 39.7-40.8 12.1-9.9 35.3-24.4 55.3-34.4 5.8-2.9 10-5.2 9.4-5.3-.6 0-9.7 4.3-20.3 9.6zm97.2 1.1c1.5.2 3.9.2 5.5 0 1.5-.2.2-.4-2.8-.4s-4.3.2-2.7.4zm31 0c1.5.2 3.7.2 5 0 1.2-.2 0-.4-2.8-.4-2.7 0-3.8.2-2.2.4zm-40 1c.9.2 2.5.2 3.5 0 .9-.3.1-.5-1.8-.5s-2.7.2-1.7.5zm51.5 0c1.2.2 3 .2 4 0 .9-.3-.1-.5-2.3-.4-2.2 0-3 .2-1.7.4z"/><use href="#B"/><use href="#B" x="8" y="1"/><use href="#C"/><path d="M316.5 35c1.1.5 2.7.9 3.5.9.9 0 .8-.4-.5-.9-1.1-.5-2.7-.9-3.5-.9-.9 0-.8.4.5.9zm-164.1 2.9c-2.9 1.5-6.5 3.8-8.1 4.9-1.7 1.2-3.2 1.9-3.5 1.7-.2-.2-1 .5-1.7 1.7l-1.3 2.1 3.4-2.1c8.1-5 14-8.2 14.7-8.2.5 0 1.1-.7 1.5-1.5.7-1.9 1-2-5 1.4zm77.1 5.1c-18.3 1.4-40.4 6.2-54.9 11.9-11.6 4.7-25.9 11.5-31.8 15.3l-9.8 6.3c-9.3 5.8-21.8 16.3-32.4 27-20.5 20.7-34.6 40.6-45.3 64-1 2.2-3.2 6-4.9 8.5-5.1 7.3-7.1 12.1-10.4 24.6-5.2 19.5-6.2 28.3-6.3 55.4-.1 19.2.2 26.6 1.6 34.5 2.2 12.8 6.6 30.6 7.9 32.3.6.6.7 1.2.3 1.2s-.2.6.4 1.3c.6.8.8 1.7.4 2-.3.4-.1.7.6.7.8 0 1.1.7.7 1.5-.3.8-.1 1.5.5 1.5s.8.4.4.9c-.3.5-.1 1.2.5 1.6s.8 1.1.5 1.6c-.4.5-.1.9.6.9s1 .3.6.6c-1.2 1.3 13.8 30.7 16.7 32.6.6.4.7.8.3.8-.9 0 3 6 4.6 7.1.5.3.8.9.8 1.3-.1.3.1.6.4.6h1c.3 0-1.7-3.5-4.3-7.7-6.6-10.6-15.4-27.9-19.6-38.8-5.3-13.8-11.1-37-12.1-49l-1.1-8.5c-.9-6.1-.7-18.8.5-34.5 1.9-24.1 3.2-31.5 6.8-41 1.9-4.9 3.6-9.7 3.8-10.6.2-.8 1.5-4 3.1-7 2.5-5 4.1-8.1 11-20.9 6.8-12.6 18.1-29.2 26.4-38.5 22-24.8 45.4-43.5 70.6-56.7 17.6-9.1 25-11.7 46.4-16.3 27.7-5.8 49.4-6.5 73.6-2.2 15.7 2.8 19 3.2 13.9 1.6-6.7-2.1-23.7-5-34.5-5.9-12.4-1.1-12.7-1.1-27.5 0z"/><use href="#C" x="-4" y="19"/><path d="M245.7 53.7c1.8.2 5 .2 7 0 2.1-.2.7-.4-3.2-.4-3.8 0-5.5.2-3.8.4zm118.3.7c0 .3 1.4 1.2 3 2.1 1.7.9 3 1.3 3 1.1 0-.3-1.3-1.2-3-2.1-1.6-.9-3-1.3-3-1.1zm-129.5 2.3c-8.1 1.1-23.9 4.6-31 7C196.3 66 176.3 74.6 175 76c-.3.3-1.1.6-1.8.8-2 .4-20.8 12.8-28.2 18.5-21 16.4-39.1 37-55.2 62.7-8.5 13.6-18.8 34.4-22.1 44.5-3.1 9.5-7.8 28.5-7.2 29.4.2.4-.3 3.6-1 7.1-.8 3.6-1.4 7.8-1.3 9.5 0 1.9.2 2.3.5 1 7.8-36.4 8.9-39.6 19.8-62 12.4-25.1 22.1-39.5 42.4-62.5 16.4-18.7 33.6-32.2 52.9-41.7 12.2-6 15.5-8.3 11.7-8.3-.9 0-3.7 1.1-6.3 2.4s-6.5 3.1-8.7 4c-3.7 1.5-3.8 1.5-2 0 4.2-3.4 16-8.5 18.3-7.9 1.6.4 2.1.2 1.7-.6-.5-.8-.1-.9 1.5-.4s2 .4 1.5-.5-.1-1 1.5-.5c1.3.4 2 .3 1.7-.2-.6-1 10.4-5.9 16.3-7.3 1.9-.4 5.3-1.5 7.4-2.5 2.2-.9 6-1.8 8.5-2 10.6-.9 15.3-1.8 14-2.6-.8-.5-1.8-.8-2.4-.7-.5 0-2.3.3-4 .5zm-122.2 9.2C92.8 79.4 73.8 99.8 53.8 129c-10.3 15-14.6 22.2-16.4 27.3s-.1 3.8 3.9-3.1L50 139c2.9-4.7 6.7-11 8.3-14 1.7-3 3.8-6.3 4.8-7.2 1-1 4.6-5.4 7.9-9.8 9.5-12.5 25.7-27.5 44.4-41 4.2-3 7.6-5.9 7.6-6.3 0-.5.5-.5 1.2-.1.6.4.8.3.4-.4-.3-.5 0-1.2.6-1.5.7-.2 1-.7.7-1.1-.3-.3-6.4 3.4-13.6 8.3zm234.8-8.5c.2.2 1.5.9 2.9 1.5 2.4 1.1 2.4 1.1.6-.3-1.6-1.3-4.9-2.4-3.5-1.2zm35.9 4.9c0 .7 8.1 6.9 8.6 6.5.2-.3-1.6-1.9-4.1-3.7s-4.5-3-4.5-2.8z"/><use href="#D"/><path d="M265.3 74.7c2.6.2 6.7.2 9 0s.2-.3-4.8-.3c-4.9 0-6.8.1-4.2.3zm20.2 1.4l15.4 2.9 9.8 1.6c.8-.8-17.4-4.5-24.2-5l-7-.5 6 1zm-42.2 3c-23.9 3.5-54.5 15.8-77.3 31.3-11.7 7.9-28.8 23.9-38.7 36.1-8.5 10.5-21.8 30.6-28.1 42.5-5.8 10.8-13.2 29.4-15.5 39-5.9 24.4-4.2 56.1 4.4 80.7 3.1 8.9 14.3 33.3 15.3 33.3.3 0-1.2-3.7-3.3-8.2-8.7-19.2-12.6-32.1-14.8-49.3-4.4-35.1 4.4-69.9 27-106.7 10.2-16.7 20-29.1 34.2-43.3 18.4-18.3 35.8-30 59.5-39.8 13.7-5.6 28.8-10.5 39.3-12.7 11.8-2.4 15.4-4 8.7-3.8-2.5 0-7.3.4-10.7.9zm164.3 5.8c15.8 17.2 31.8 38.1 40.8 53.1 8.6 14.4 23.1 44.2 27.1 55.9 7.4 21.6 10.1 43.9 9.2 76-.6 22.9-2.3 36-6.8 52.9-2.9 11-9.7 29.7-10.5 28.9-.3-.2.5-2.6 1.6-5.3 2.5-5.7 8.6-27.1 9.4-32.9.4-2.2-.9.9-2.8 7-5.7 18.3-9.5 28.5-15.1 40.2s-18.5 31.6-27 41.7l-8 9.5c-1.6 1.9-2.3 3.2-1.5 2.7 2-1-20.2 20.6-25.2 24.5-2.2 1.8-3.8 2.5-3.7 1.7 0-.7 3.5-4.1 7.7-7.5 10.8-8.6 20.4-17.4 19.7-18.1-.3-.3-2.2 1-4.3 3-5.6 5.3-34.3 26.5-46.2 34.1-13.5 8.7-39.6 21.6-52.9 26.2-25.3 8.7-43.3 11.8-67.6 11.8-33.1 0-59.5-6.5-91.2-22.3-6.5-3.3-10.7-5.1-9.3-4 11.1 8.5 47.8 23 69.2 27.4 17.8 3.6 44 4.8 60.5 2.6 9.3-1.3 28.8-5.4 35.8-7.7 17.1-5.4 45.2-18.6 59.5-27.8 4.7-3 11-6.8 14-8.4s7.2-4.1 9.3-5.5 4.2-2.6 4.6-2.6c1.3 0 15.8-10.7 23.1-16.9 10-8.7 23-22 23-23.7 0-.8.7-1.7 1.5-2 .8-.4 1.5-1 1.5-1.5s2.6-5.3 5.8-10.6l8.2-14c1.3-2.3 2.7-4 3.1-3.7.5.3.6-.3.2-1.2-.4-1.2-.3-1.5.5-1s1 .1.5-1c-.4-1.2-.3-1.5.5-1s1 .2.6-.8c-.3-.9-.1-1.6.6-1.6.6 0 .8-.5.5-1-.3-.6-.1-1 .5-1s.8-.5.5-1c-.3-.6-.1-1 .5-1s.9-.4.6-.9c-.4-.5-.2-1.1.3-1.3 2-.8 12-29.3 12.6-36.3.2-2.2 1.3-8.5 2.4-14 3.5-17.6 4.4-27.2 3.7-41.5-.8-17.4-1.2-20.7-4.2-37.5-4.2-23.4-6.5-29.9-20.2-56.8-15-29.7-36.5-59.9-58.2-81.7-5.2-5.3-7.2-7.1-4.4-4.1zm56 275.8c-1.4 2.6-2.5 4.5-2.6 4.1 0-1.2 4.3-9.8 4.8-9.4.2.2-.8 2.6-2.2 5.3zM459 370c-.6 1.1-1.3 2-1.6 2-.2 0 0-.9.6-2s1.3-2 1.6-2c.2 0 0 .9-.6 2zm-2.6 4.2c-7.7 13.1-20.5 30.1-28.7 38.3-2.6 2.6 1.1-2.2 8.2-10.6 3-3.5 8.8-11.4 12.9-17.6s7.7-11.3 7.9-11.3.1.6-.3 1.2z"/><use href="#E"/><use href="#F"/><use href="#E" x="5" y="4"/><path d="M398 90.5c1.3 1.4 2.6 2.5 2.8 2.5.3 0-.5-1.1-1.8-2.5s-2.6-2.5-2.8-2.5c-.3 0 .5 1.1 1.8 2.5zm-11.9 9.1c7.4 7.8 10.2 11.5 14.8 19.6 1.8 3.2 3.7 6 4.3 6.4.5.4.2-.5-.7-2-1-1.5-1.5-2.9-1.3-3.2.7-.6 9 9.9 14.2 18 2.1 3.2 5.8 8.3 8.2 11.3 2.5 3 6.3 8.4 8.5 11.9 2.3 3.5 4.3 6.4 4.6 6.4.9 0-5-9.5-10.7-17-3.1-4.1-7.6-10.4-10-14-6.1-9.1-11-15.4-12.6-16.3-.8-.5-1.2-1.2-1-1.6.7-1.1-14.9-18.6-20.4-22.9-3.9-3.2-3.7-2.7 2.1 3.4z"/><use href="#D" x="16" y="31"/><use href="#D" x="21" y="37"/><use href="#E" x="32" y="32"/><path d="M462.9 116c3.4 6 10.6 21 15.9 33.1 9.7 22.3 17.4 50.6 21.4 78.4 1.9 13.3 1.6 56.2-.5 69.3-8.1 50.5-26.3 91.4-55.9 125.7-12.8 14.8-37.8 38.9-49.9 48-9.6 7.2-29.3 19.5-31.3 19.5-.5 0 6.5-5.5 15.5-12.2 13-9.6 39.9-32.1 39.9-33.3 0-1-11.5 6-22.9 13.9-25.5 17.5-42.7 26.9-65.5 35.5-51.1 19.5-112.9 18.5-162-2.6-10.8-4.6-11.5-4.8-8.8-2.8 1.2.9 6.9 3.7 12.5 6.1 8.9 4 14.7 6.3 29.7 11.9 1.9.7 7.1 2.2 11.5 3.4 7.8 2.1 9.4 2.2 58 1.8 47.7-.3 53.5-.6 57.6-2.7 1-.6 2.9-1 4.3-1s2.7-.4 3-.8c.3-.5 3.1-1.4 6.3-2.1 3.1-.8 6.4-1.7 7.3-2.2.8-.4 6.5-2.2 12.5-3.9 10.1-2.9 13.5-4.2 23.5-8.9 4.7-2.2 17.4-9.3 18-10.1.3-.3 3.2-2.5 6.5-4.8 6.2-4.3 17.9-15 33.9-30.7 9.6-9.5 12.8-13.2 20-23l6.4-8.5c1.1-1.4 2.7-4.1 3.7-6s2.1-3.7 2.4-4c1.4-1.2 13.2-24.6 16.3-32.4 1.1-2.8 2.5-6.5 3.3-8.1 1.4-3.2 5.9-15.5 6.1-16.8.1-.4.2-.8.4-1 .1-.1.3-.9.5-1.7.1-.8 1-4.2 2-7.5.9-3.3 1.7-6.7 1.9-7.5.1-.8 1-5 2-9.3s1.6-8.7 1.3-9.7c-.3-1.1-.2-1.8.2-1.6.4.3.9-2.3 1.1-5.7.8-10.4.6-56.8-.3-64.2-1-8.7-4.7-25.3-8.2-36.5l-3.9-13c-.7-2.5-2.3-6.7-3.4-9.4-1.2-2.7-2.2-5.3-2.2-5.7 0-2.3-10.6-26-15.1-33.7-8.4-14.4-12.3-20.7-14.7-23.8l-2.4-2.9 2.1 3.5z"/><use href="#E" x="35" y="36"/><path d="M397.1 123.5c1.4 1.7 7.3 8.2 13.1 14.6 11.2 12.5 17.1 21.6 24.7 38.4 3.2 7 5.1 10 5.5 8.9.3-.8-1-5.2-2.9-9.5-4-9.2-4.1-9.6-1.7-7.8 1.5 1.3 1.6 1.2.3-.3-.7-1-1.8-1.5-2.4-1.1s-.8 0-.4-1c.3-.9.1-1.9-.5-2.3-.7-.4-.8-.3-.4.4s.5 1.2.2 1.2-1-1-1.7-2.1c-.9-1.7-.8-2 .3-1.4.7.4.2-.3-1.2-1.5s-1.8-1.8-1-1.4c3.4 1.9-12.4-16.1-27.5-31.1-3.8-3.8-5.8-5.6-4.4-4zm-141.6 9.1c-15.8 3.9-29.1 15.7-38.1 34-8.3 16.9-10.9 32.1-11.9 68.9-1.1 40.1 1.4 63.2 8.4 78 5.1 10.7 6 11 4 .9l-2.4-11.9c-3.8-23.7-3-76.4 1.5-100 2.5-12.7 9.3-30.2 15.3-39 12.2-17.9 32.8-27.8 48.1-23.1l4.8 1.5-2.2-2.4c-1.2-1.3-4.4-3.3-7-4.4-4.7-2-16.5-3.5-20.5-2.5zM31.8 153.8c-12 25.7-17.5 48.6-19.9 82.1-2.5 36.6 3.4 70.6 19.3 110.6 4.5 11.3 15.8 33.9 16.5 33.1.3-.3-2-5.3-5.1-11.1-6.9-13.1-11.2-23.3-16.4-39.5-5.2-16.1-7.9-26.6-8.8-33.8-.3-3.1-.8-6-1-6.4-.3-.4-1.1-8.5-2-18-1.2-13.8-1.3-19.5-.4-28.5.6-6.2.8-12.2.5-13.3-.4-1.1-.2-2 .4-2s1.1-1.5 1.1-3.4c0-8.2 6.5-35.1 13.6-56.5l7-22.8c-.1-.2-2.3 4.1-4.8 9.5zM406 147c.6 1.1 1.3 2 1.6 2 .2 0 0-.9-.6-2s-1.3-2-1.6-2c-.2 0 0 .9.6 2zm2.6 4.3c.3 1 .9 1.5 1.2 1.2s0-1.1-.7-1.8c-1-.9-1.1-.8-.5.6zm6.4 13.2c5.1 11.1 13.3 35.6 15.9 47.5 3.5 16.4 5.1 32.2 5.1 50.8 0 24.8-2.2 41-8.1 60.4-3.1 10.4-3.5 12.3-1.9 11.3 1.4-.8 1.4-1-2.1 8.6-6.4 17.7-25.9 51.5-35.3 61-5.5 5.6-29.5 23.2-41.9 30.8-10 6.1-24.7 13.2-25.7 12.6-.6-.4-1-.2-1 .3s-2.1 1.5-4.7 2.2c-2.7.6-8.2 2.3-12.3 3.6-11.3 3.5-26.5 7-37.1 8.5-11.6 1.5-13.5 2.8-4.3 2.7 8.8 0 19.4-1.8 39.7-6.8 27.9-6.9 49.4-18.8 84.2-46.4 9.4-7.5 17.5-13.5 18-13.5 2.1-.1-28.9 25.8-40.5 33.8-37.1 25.5-79.7 38.3-128 38.5-14.5.1-19.5-.3-29-2.2-16.3-3.3-33.8-9.2-47.6-16.2-6.6-3.2-10.8-5-9.4-3.9 4.2 3.3 27.9 14.5 37.6 17.8 17.6 5.9 31.1 8.3 49.9 8.6 35.1.7 68.2-5.8 97-19 27.6-12.7 61.1-39.4 70.6-56.3 1.8-3.1 6.6-10.9 10.8-17.2 14.6-22.2 21.5-40.8 24.1-65 .5-4.7 1.4-11.2 2-14.5 1.9-10.7 2.5-20.6 2.4-38.5 0-15.9-.3-18.8-3.3-32.3-5.2-23.9-16.9-57-25.4-71.8-3.9-6.8-3.7-4.2.3 4.6zm21.6 155.7c-.8 10.4-12.3 39.7-21 53.3-4.2 6.6-16.8 22.6-17.4 22.1-.2-.2 2.6-4.4 6.2-9.2 11.6-15.7 22.2-37.9 28.3-59.4 2.1-7.1 3.9-13 4.1-13 .1 0 .1 2.8-.2 6.2zM321 449.9c0 .5-2.4 1.7-5.2 2.7l-6.8 2.2c-3.8 1.3.4-1.2 5.7-3.4 6.8-2.8 6.3-2.6 6.3-1.5zM343.2 167c8.8 20.8 11.2 36.9 10.6 72.3-.4 19.7-.9 26.2-2.7 35-5.9 29.1-18.2 50.9-36.2 64.5-24.3 18.2-65.6 23-100.4 11.7-1.1-.4.5.7 3.5 2.4 21 12 63.1 14.2 86.9 4.6 3.5-1.4 8-3.7 10.2-5 2.1-1.4 4.4-2.5 5-2.5 2 0 22.3-21.3 24.8-26 6.6-12.6 10.2-20.3 10.4-22 .1-1.1.6-2 1.1-2s.7-.3.4-.6c-.4-.3.3-3.6 1.3-7.2 4-13.6 5.1-22.3 5.1-39.2 0-25.7-.4-33.8-2.6-50.5-1.2-9-12.6-34.6-18.5-41.5l-3-3.5 4.1 9.5zm-268.7 2.2c-.9 2.4-2.2 4.6-2.8 5-.9.6-.8.8.1.8 1.3 0 5.8-8.8 4.9-9.6-.2-.3-1.2 1.4-2.2 3.8zm365.8 2.5c.7 1.6 3.3 6.8 5.9 11.8C461.9 214.4 467 260 459.5 304c-1.7 10.2-7.4 28.9-13.9 45.5l-5.3 13.5c-.4 1-.3 1.2.4.5.6-.6 3.8-7.3 7.1-15 3.5-8.1 7.5-15.7 9.5-18 5-5.8 7.7-15 11.3-38 1.9-11.7 2.1-40.1.4-52.7-2.8-21.3-11.9-44.8-25.4-65.1-4.2-6.3-5.2-7.2-3.3-3zm43.8 6.3c0 .8.4 2.2.9 3 1.2 1.8 1.2.2 0-2.5-.6-1.3-.9-1.5-.9-.5zm-41.6 4.1c2.1 6.7 7.5 20.3 8.6 21.3 1.9 1.8.1-5-3.8-14.2-3.4-7.8-6.4-12.3-4.8-7.1zm44.6 4.9c0 .8.4 2.4.9 3.5.5 1.3.9 1.4.9.5 0-.8-.4-2.4-.9-3.5-.5-1.3-.9-1.4-.9-.5zm4.6 19.7c.7 3.7 1.6 6.9 2 7.2.3.3.3-.5 0-1.9l-1.3-6.8c-.4-2.3-1-4.5-1.4-4.7-.4-.3-.1 2.5.7 6.2z"/><use href="#G"/><path d="M30.7 216.3c-3.1 13.6-4.6 43.3-2.7 56.7.5 3.6.8-2.4.9-17.7 0-12.8.5-25.2 1.1-27.5 1.4-6.4 3.1-18 2.7-18.4-.1-.2-1.1 2.9-2 6.9zm422.7-5c2.8 11.7 3.9 24.9 4 47.7.1 13.5-.2 28.3-.7 33-.5 5.7-.4 8 .2 6.9 2.1-3.3 3.4-36.6 2.2-53.5-1.1-15-4.2-34.9-5.7-36.3-.4-.3-.4.7 0 2.2z"/><use href="#G" x="461" y="12"/><path d="M480.4 257.5c0 10.4-.2 21.2-.7 24-.6 4.1-.5 4.7.5 3 1.6-2.6 2.2-28.5 1-38.5-.8-6.4-.9-4.6-.8 11.5zM59.3 270c0 4.1.2 5.8.4 3.7a46.95 46.95 0 0 0 0-7.5c-.2-2-.4-.3-.4 3.8zm436.9 6c0 1.9.2 2.7.5 1.7.2-.9.2-2.5 0-3.5-.3-.9-.5-.1-.5 1.8zm-467.3 3.4c-1.6 1.7 5.4 38 8.3 42.6.7 1.2.8 1 .4-.5-.3-1.1-1.4-5.7-2.6-10.3-1.1-4.5-2.9-13.7-3.8-20.3-1-6.6-2-11.8-2.3-11.5z"/><use href="#H"/><use href="#H" x="435" y="4"/><use href="#G" x="23" y="84"/><path d="M52 290.5c0 .5.5 1.7 1 2.5s1 1 1 .5c0-.6-.5-1.7-1-2.5s-1-1.1-1-.5zm9 0c0 6.1 10.3 41.5 12 41.5.9 0 .4-2.2-.9-4.5-.3-.6-.6-1.5-.8-2-.1-.6-.6-2.4-1.2-4-2.3-6.2-7.1-24.4-7.1-26.6 0-1.3-.5-3.1-1-3.9s-1-1.1-1-.5z"/><use href="#G" x="378" y="89"/><path d="M57.3 298.3c.2 2 1.9 2.5 2.6.6.2-.6-.1-.9-.7-.5-.6.3-1.3 0-1.6-.6-.3-.7-.5-.5-.3.5zM408.2 309c-6.1 25.1-18.7 49.9-35.4 69.7-19.8 23.7-54.2 45.2-84.4 52.9-29.3 7.4-67.7 4-97.8-8.6-9-3.8-9.6-3.2-.9.8 29.8 13.7 70.1 20.3 96.2 15.8 37.1-6.5 78.4-33.5 99.3-65.1 11.6-17.7 17.5-31.6 23.7-56 2.2-8.8 3.4-18.5 2.2-18.5-.4 0-1.7 4.1-2.9 9zm47-1.6c-1.7 9.3-5.9 22.1-9.8 29.9-3 6.2-3.1 6.7-1.1 5.4 1.3-.9 3.5-4.9 5.5-10.3 5.1-13.4 10.7-34.3 8.3-30.5-.6.9-1 1-1.2.2-.3-.7-1 1.7-1.7 5.3zm-397.2-5c0 1.8 5.8 19.7 8.6 26.5 3.6 8.6 13.8 27.8 20.3 38.1 12 19.1 29.1 36.2 48.6 48.6 1.6 1 2.6 1.3 2.2.6-1.2-1.8.8-1.5 2.4.4.7.9 3.1 2.8 5.3 4.4 4.8 3.2 21.6 12.4 21.6 11.7 0-.2-3.7-2.6-8.2-5.2-9.4-5.4-16.4-10.3-25.8-18.3l-6.5-5.6 5.5 5.7c3 3.1 5.1 5.7 4.6 5.7-2.3 0-15.2-10.5-24.1-19.6-11.1-11.4-13.5-14.1-13.4-15 0-.4-.5-1-1.3-1.5-.7-.5-1.3-1.2-1.3-1.6s-1.8-2.6-3.8-4.8c-4.9-5.1-12-17.2-11.1-18.7.4-.7.3-.8-.5-.4-2.4 1.6-15.8-29.7-20.1-47.2-.6-2.3-1.5-4.2-2-4.2-.6 0-1 .2-1 .4zm398.7 33.8l-11.1 23.1c-8.7 18.2-12.2 24.3-22.5 38.7-9.7 13.5-18.5 22.7-34.1 35.8-33.2 27.8-69.7 45.2-109.5 52.1-6 1.1-9.6 2-7.8 2 8.4.2 39.6-7.6 53.7-13.6 17.2-7.2 40.7-20.2 60.4-33.5 7.6-5.2 36.7-33.4 46.2-44.8 7.5-9.1 16.5-23 18.5-28.7.9-2.6 3.4-9.1 5.6-14.3 4-9.7 5.8-16.4 5.9-21.3 0-4.5-1.6-3.1-5.3 4.5z"/><path d="M78.1 344c1.8 3.3 3.4 5.9 3.5 5.7.5-.4-5.6-11.7-6.2-11.7-.3 0 .9 2.7 2.7 6zM436 371.7c-1.9 3.7-6.3 10.9-9.7 16.2l-6.2 9.6 4.9-5.3c3.1-3.3 6.9-9.3 10.2-15.7 5.7-11.6 6.3-15.2.8-4.8zm-363.4 9.2c-.4.5-.2 1.2.3 1.5.5.4 1.2.2 1.5-.3.4-.5.2-1.2-.3-1.5-.5-.4-1.2-.2-1.5.3zm2 3c-.4.5.3 1.6 1.4 2.4 1.1.7 1.8 1.6 1.5 1.9s.5 1.3 1.7 2.4c2.3 1.9 2.3 1.9.5-.2-.9-1.1-1.4-2.4-1.1-2.7.4-.4-.1-.9-1-1.3-.9-.3-1.4-1-1.1-1.4.3-.5.1-1.1-.4-1.4-.5-.4-1.2-.2-1.5.3zM86.5 399l5.4 5c.3 0-1.7-2.3-4.4-5-2.7-2.8-5.1-5-5.4-5s1.7 2.2 4.4 5z"/><use href="#D" x="-312" y="335"/><use href="#F" x="-277" y="322"/><use href="#F" x="-284" y="328"/><path d="M100 426.2c4.1 4.5 5 5.3 5 4.5 0-.2-2.1-2.3-4.7-4.7l-4.8-4.5 4.5 4.7z"/><use href="#D" x="-283" y="365"/><path d="M116.8 441.2c1.4 1.7 13.2 10.2 13.2 9.5 0-.3-3.3-2.8-7.2-5.7-4-2.9-6.7-4.6-6-3.8zm43.2 7.3c0 1.7 22.6 10.2 35.5 13.4 15.8 3.9 37.5 7.1 47.4 7l9.6-.2-11.5-.8c-6.3-.5-14.9-1.5-19-2.4l-18.5-3.6c-9.9-1.8-30.3-8.1-39.7-12.3-2.1-.9-3.8-1.4-3.8-1.1zm-28.6 3.4c.4.6 2.2 1.8 3.9 2.7 3 1.4 3.1 1.4 1.2-.1-3-2.5-5.9-3.9-5.1-2.6zm10.6 6.5c0 .3.9 1 2 1.6s2 .8 2 .6c0-.3-.9-1-2-1.6s-2-.8-2-.6zm59.5 24.6c1.1.5 2.9.8 4 .8 1.6 0 1.5-.2-.5-.8-3.4-1.1-6-1.1-3.5 0z"/><use href="#I"/><use href="#I" x="6" y="1"/><use href="#I" x="12" y="2"/><use href="#B" x="-58" y="458"/><path d="M242.3 488.7c4.8.2 12.6.2 17.5 0 4.8-.1.8-.3-8.8-.3s-13.6.2-8.7.3z"/><defs ><path id="B" d="M285.3 29.7c.9.2 2.3.2 3 0 .6-.3-.1-.5-1.8-.5-1.6 0-2.2.2-1.2.5z"/><path id="C" d="M299.8 31.7c.7.3 1.6.2 1.9-.1.4-.3-.2-.6-1.3-.5-1.1 0-1.4.3-.6.6z"/><path id="D" d="M394.5 72c1 1.1 2 2 2.3 2s-.3-.9-1.3-2-2-2-2.3-2 .3.9 1.3 2z"/><path id="E" d="M386 80.4c0 .2.8 1 1.8 1.7 1.5 1.3 1.6 1.2.3-.4s-2.1-2.1-2.1-1.3z"/><path id="F" d="M371 84.3c0 .2 1.5 1.6 3.3 3.3l3.2 2.9-2.9-3.3c-2.8-3-3.6-3.7-3.6-2.9z"/><path id="G" d="M33.1 206.6c0 1.1.3 1.4.6.6.3-.7.2-1.6-.1-1.9-.3-.4-.6.2-.5 1.3z"/><path id="H" d="M60.2 284c0 1.4.2 1.9.5 1.2.2-.6.2-1.8 0-2.5-.3-.6-.5-.1-.5 1.3z"/><path id="I" d="M208.8 484.7c.6.2 1.8.2 2.5 0 .6-.3.1-.5-1.3-.5s-1.9.2-1.2.5z"/></defs></svg>